<svg width="48" height="48" viewBox="0 0 48 48" fill="none" xmlns="http://www.w3.org/2000/svg">
<path d="M26.127 30.38L36.1524 20.3546C38.3335 18.1734 41.87 18.1734 44.0512 20.3546C46.2323 22.5358 46.2323 26.0722 44.0511 28.2534L41.0132 31.2914C37.1541 35.1504 30.8974 35.1504 27.0384 31.2914L26.127 30.38Z" fill="#035DD8"/>
<path d="M30.3809 22.4812L19.7479 11.8482C17.5667 9.66701 17.5667 6.1306 19.7479 3.94941C21.9291 1.76821 25.4655 1.76821 27.6467 3.94941L30.9885 7.2912C35.0153 11.318 35.0153 17.8468 30.9885 21.8736L30.3809 22.4812Z" fill="#EB5757"/>
<path d="M21.873 17.6204L11.8476 27.6458C9.66645 29.827 6.13004 29.827 3.94885 27.6458C1.76766 25.4646 1.76766 21.9282 3.94885 19.747L6.98685 16.709C10.8459 12.8499 17.1026 12.8499 20.9616 16.709L21.873 17.6204Z" fill="#035DD8"/>
<path d="M17.6191 25.519L28.2521 36.152C30.4333 38.3332 30.4333 41.8696 28.2521 44.0508C26.0709 46.232 22.5345 46.232 20.3533 44.0508L17.0115 40.709C12.9847 36.6822 12.9847 30.1535 17.0115 26.1266L17.6191 25.519Z" fill="#035DD8"/>
</svg>
